# xmcd
#
# Track frame offsets: 
#        150
#        28565
#        55662
#        76480
#        93500
#        113357
#        135826
#        167483
#        191061
#        206251
#        231948
#        252996
#
# Disc length: 3835 seconds
#
# Revision: 0
# Processed by: cddbd v1.5.2PL0 Copyright (c) Steve Scherf et al.
# Submitted via: ExactAudioCopyFreeDBPlugin 1.0
#
DISCID=8d0ef90c
DTITLE=Chris Taylor - Nashville Sessions
DYEAR=1999
DGENRE=Folk/Rock
TTITLE0=Good Thing
TTITLE1=Seahorse
TTITLE2=The River
TTITLE3=Wonderful Thing
TTITLE4=What do You Want?
TTITLE5=Bleeding Hearts Club
TTITLE6=The Agnostic Wanderer  of Soul Street
TTITLE7=Already Forgotten the Name
TTITLE8=Worthless Pursuit of Things on the Earth
TTITLE9=Bright and Morning Star
TTITLE10=Sad Day in Heaven
TTITLE11=Down Goes the Day
EXTD=
EXTT0=
EXTT1=
EXTT2=
EXTT3=
EXTT4=
EXTT5=
EXTT6=
EXTT7=
EXTT8=
EXTT9=
EXTT10=
EXTT11=
PLAYORDER=
